<mxfile host="app.diagrams.net" modified="2023-06-12T06:14:31.282Z" agent="Mozilla/5.0 (Windows NT 10.0; Win64; x64) AppleWebKit/537.36 (KHTML, like Gecko) Chrome/114.0.0.0 Safari/537.36 Edg/114.0.1823.43" etag="UkQESzu_rrTNmw8KqG0Y" version="21.3.8" type="github">
  <diagram name="第 1 页" id="l9cfTY34KyVhvMtZ5OiD">
    <mxGraphModel dx="1117" dy="790" grid="1" gridSize="10" guides="1" tooltips="1" connect="1" arrows="1" fold="1" page="1" pageScale="1" pageWidth="827" pageHeight="1169" math="0" shadow="0">
      <root>
        <mxCell id="0" />
        <mxCell id="1" parent="0" />
        <mxCell id="Q9o0hdz1zRcJJmBNxWIM-1" value="&lt;font style=&quot;font-size: 15px;&quot;&gt;构建&lt;/font&gt;" style="ellipse;whiteSpace=wrap;html=1;strokeWidth=2;" vertex="1" parent="1">
          <mxGeometry x="140" y="200" width="120" height="80" as="geometry" />
        </mxCell>
        <mxCell id="Q9o0hdz1zRcJJmBNxWIM-2" value="概念" style="ellipse;whiteSpace=wrap;html=1;aspect=fixed;strokeWidth=2;" vertex="1" parent="1">
          <mxGeometry x="200" y="350" width="50" height="50" as="geometry" />
        </mxCell>
        <mxCell id="Q9o0hdz1zRcJJmBNxWIM-3" value="&lt;font style=&quot;font-size: 15px;&quot;&gt;测量&lt;/font&gt;" style="ellipse;whiteSpace=wrap;html=1;strokeWidth=2;" vertex="1" parent="1">
          <mxGeometry x="490" y="200" width="120" height="80" as="geometry" />
        </mxCell>
        <mxCell id="Q9o0hdz1zRcJJmBNxWIM-5" value="产品" style="ellipse;whiteSpace=wrap;html=1;aspect=fixed;strokeWidth=2;" vertex="1" parent="1">
          <mxGeometry x="360" y="160" width="50" height="50" as="geometry" />
        </mxCell>
        <mxCell id="Q9o0hdz1zRcJJmBNxWIM-6" value="&lt;font style=&quot;font-size: 15px;&quot;&gt;认知&lt;/font&gt;" style="ellipse;whiteSpace=wrap;html=1;strokeWidth=2;" vertex="1" parent="1">
          <mxGeometry x="320" y="420" width="120" height="80" as="geometry" />
        </mxCell>
        <mxCell id="Q9o0hdz1zRcJJmBNxWIM-7" value="体验" style="ellipse;whiteSpace=wrap;html=1;aspect=fixed;strokeWidth=2;" vertex="1" parent="1">
          <mxGeometry x="500" y="350" width="50" height="50" as="geometry" />
        </mxCell>
        <mxCell id="Q9o0hdz1zRcJJmBNxWIM-9" value="" style="curved=1;endArrow=blockThin;html=1;rounded=0;exitX=1;exitY=0;exitDx=0;exitDy=0;entryX=0;entryY=0.5;entryDx=0;entryDy=0;strokeWidth=2;endFill=0;endSize=8;" edge="1" parent="1" source="Q9o0hdz1zRcJJmBNxWIM-1" target="Q9o0hdz1zRcJJmBNxWIM-5">
          <mxGeometry width="50" height="50" relative="1" as="geometry">
            <mxPoint x="390" y="430" as="sourcePoint" />
            <mxPoint x="320" y="220" as="targetPoint" />
            <Array as="points">
              <mxPoint x="300" y="180" />
            </Array>
          </mxGeometry>
        </mxCell>
        <mxCell id="Q9o0hdz1zRcJJmBNxWIM-10" value="" style="curved=1;endArrow=blockThin;html=1;rounded=0;exitX=1;exitY=0.5;exitDx=0;exitDy=0;entryX=0;entryY=0;entryDx=0;entryDy=0;strokeWidth=2;endFill=0;endSize=8;" edge="1" parent="1" source="Q9o0hdz1zRcJJmBNxWIM-5" target="Q9o0hdz1zRcJJmBNxWIM-3">
          <mxGeometry width="50" height="50" relative="1" as="geometry">
            <mxPoint x="390" y="430" as="sourcePoint" />
            <mxPoint x="440" y="380" as="targetPoint" />
            <Array as="points">
              <mxPoint x="460" y="180" />
            </Array>
          </mxGeometry>
        </mxCell>
        <mxCell id="Q9o0hdz1zRcJJmBNxWIM-11" value="" style="curved=1;endArrow=blockThin;html=1;rounded=0;entryX=1;entryY=0;entryDx=0;entryDy=0;exitX=0.5;exitY=1;exitDx=0;exitDy=0;strokeWidth=2;endFill=0;endSize=8;" edge="1" parent="1" source="Q9o0hdz1zRcJJmBNxWIM-3" target="Q9o0hdz1zRcJJmBNxWIM-7">
          <mxGeometry width="50" height="50" relative="1" as="geometry">
            <mxPoint x="550" y="290" as="sourcePoint" />
            <mxPoint x="440" y="380" as="targetPoint" />
            <Array as="points">
              <mxPoint x="560" y="320" />
            </Array>
          </mxGeometry>
        </mxCell>
        <mxCell id="Q9o0hdz1zRcJJmBNxWIM-12" value="" style="curved=1;endArrow=blockThin;html=1;rounded=0;exitX=0;exitY=1;exitDx=0;exitDy=0;entryX=1;entryY=0.5;entryDx=0;entryDy=0;strokeWidth=2;endFill=0;endSize=8;" edge="1" parent="1" source="Q9o0hdz1zRcJJmBNxWIM-7" target="Q9o0hdz1zRcJJmBNxWIM-6">
          <mxGeometry width="50" height="50" relative="1" as="geometry">
            <mxPoint x="490" y="460" as="sourcePoint" />
            <mxPoint x="540" y="410" as="targetPoint" />
            <Array as="points">
              <mxPoint x="470" y="450" />
            </Array>
          </mxGeometry>
        </mxCell>
        <mxCell id="Q9o0hdz1zRcJJmBNxWIM-13" value="" style="curved=1;endArrow=blockThin;html=1;rounded=0;exitX=0;exitY=0.5;exitDx=0;exitDy=0;entryX=1;entryY=1;entryDx=0;entryDy=0;strokeWidth=2;endFill=0;endSize=8;" edge="1" parent="1" source="Q9o0hdz1zRcJJmBNxWIM-6" target="Q9o0hdz1zRcJJmBNxWIM-2">
          <mxGeometry width="50" height="50" relative="1" as="geometry">
            <mxPoint x="230" y="510" as="sourcePoint" />
            <mxPoint x="280" y="380" as="targetPoint" />
            <Array as="points">
              <mxPoint x="290" y="450" />
            </Array>
          </mxGeometry>
        </mxCell>
        <mxCell id="Q9o0hdz1zRcJJmBNxWIM-14" value="" style="curved=1;endArrow=blockThin;html=1;rounded=0;exitX=0;exitY=0;exitDx=0;exitDy=0;entryX=0.5;entryY=1;entryDx=0;entryDy=0;strokeWidth=2;endFill=0;endSize=8;" edge="1" parent="1" source="Q9o0hdz1zRcJJmBNxWIM-2" target="Q9o0hdz1zRcJJmBNxWIM-1">
          <mxGeometry width="50" height="50" relative="1" as="geometry">
            <mxPoint x="140" y="370" as="sourcePoint" />
            <mxPoint x="190" y="320" as="targetPoint" />
            <Array as="points">
              <mxPoint x="200" y="330" />
            </Array>
          </mxGeometry>
        </mxCell>
      </root>
    </mxGraphModel>
  </diagram>
</mxfile>
